<svg version="1.1" xmlns="http://www.w3.org/2000/svg" xmlns:xlink="http://www.w3.org/1999/xlink" x="0px" y="0px" style="enable-background:new 0 0 841.9 595.3;" xml:space="preserve" viewBox="172.6 216.42 497.23 162.23"><style type="text/css">	.st0{fill:##f3ede1;}</style><g id="Group_212" transform="translate(-691.779 911.342)">	<g id="Group_184" transform="translate(513 -1596)">		<path id="Path_45" class="st0" d="M353.6,905.6c23.9,0,35.6,8,48,16.4c12.4,8.5,25.2,17.2,50.5,17.2c25.3,0,38.1-8.8,50.5-17.2    c12.4-8.5,24.1-16.4,48-16.4c23.9,0,35.6,8,48,16.4c12.4,8.5,25.2,17.2,50.5,17.2s38.1-8.8,50.5-17.2c12.4-8.5,24.1-16.4,48-16.4    s35.6,8,48,16.4c12.4,8.5,25.2,17.2,50.5,17.2c1.2,0,2.3-1,2.3-2.2s-1-2.3-2.2-2.3c0,0-0.1,0-0.1,0c-23.9,0-35.6-8-48-16.4    s-25.2-17.2-50.5-17.2s-38.1,8.8-50.5,17.2s-24.1,16.4-48,16.4c-23.9,0-35.6-8-48-16.4c-12.4-8.5-25.2-17.2-50.5-17.2    s-38.1,8.8-50.5,17.2c-12.4,8.5-24.1,16.4-48,16.4s-35.6-8-48-16.4c-12.4-8.5-25.2-17.2-50.5-17.2c-1.2,0-2.2,1-2.2,2.2    C351.4,904.6,352.4,905.6,353.6,905.6L353.6,905.6z"></path>		<path id="Path_46" class="st0" d="M846.3,976.1c-23.9,0-35.6-8-48-16.4c-12.4-8.5-25.2-17.2-50.5-17.2s-38.1,8.8-50.5,17.2    c-12.4,8.5-24.1,16.4-48,16.4c-23.9,0-35.6-8-48-16.4c-12.4-8.5-25.2-17.2-50.5-17.2s-38.1,8.8-50.5,17.2    c-12.4,8.5-24.1,16.4-48,16.4s-35.6-8-48-16.4c-12.4-8.5-25.2-17.2-50.5-17.2c-1.2,0-2.3,1-2.3,2.2s1,2.3,2.2,2.3c0,0,0.1,0,0.1,0    c23.9,0,35.6,8,48,16.4c12.4,8.5,25.2,17.2,50.5,17.2s38.1-8.8,50.5-17.2c12.4-8.5,24.1-16.4,48-16.4c23.9,0,35.6,8,48,16.4    c12.4,8.5,25.2,17.2,50.5,17.2s38.1-8.8,50.5-17.2c12.4-8.5,24.1-16.4,48-16.4s35.6,8,48,16.4c12.4,8.5,25.2,17.2,50.5,17.2    c1.2,0,2.2-1,2.2-2.2C848.6,977.1,847.6,976.1,846.3,976.1L846.3,976.1z"></path>		<path id="Path_47" class="st0" d="M846.3,1017.5c-23.9,0-35.6-8-48-16.4s-25.2-17.2-50.5-17.2s-38.1,8.8-50.5,17.2    c-12.4,8.5-24.1,16.4-48,16.4c-23.9,0-35.6-8-48-16.4c-12.4-8.5-25.2-17.2-50.5-17.2s-38.1,8.8-50.5,17.2    c-12.4,8.5-24.1,16.4-48,16.4s-35.6-8-48-16.4c-12.4-8.5-25.2-17.2-50.5-17.2c-1.2,0-2.2,1-2.2,2.2c0,1.2,1,2.2,2.2,2.2    c0,0,0,0,0,0c23.9,0,35.6,8,48,16.4c12.4,8.5,25.2,17.2,50.5,17.2s38.1-8.8,50.5-17.2c12.4-8.5,24.1-16.4,48-16.4    c23.9,0,35.6,8,48,16.4c12.4,8.5,25.2,17.2,50.5,17.2s38.1-8.8,50.5-17.2c12.4-8.5,24.1-16.4,48-16.4s35.6,8,48,16.4    c12.4,8.5,25.2,17.2,50.5,17.2c1.2,0,2.2-1,2.2-2.2C848.6,1018.5,847.6,1017.5,846.3,1017.5L846.3,1017.5z"></path>		<path id="Path_48" class="st0" d="M846.3,1058.9c-23.9,0-35.6-8-48-16.4c-12.4-8.5-25.2-17.2-50.5-17.2s-38.1,8.8-50.5,17.2    c-12.4,8.5-24.1,16.4-48,16.4c-23.9,0-35.6-8-48-16.4c-12.4-8.5-25.2-17.2-50.5-17.2s-38.1,8.8-50.5,17.2    c-12.4,8.5-24.1,16.4-48,16.4s-35.6-8-48-16.4c-12.4-8.5-25.2-17.2-50.5-17.2c-1.2,0-2.2,1-2.2,2.2c0,1.2,1,2.2,2.2,2.2    c23.9,0,35.6,8,48,16.4c12.4,8.5,25.2,17.2,50.5,17.2s38.1-8.8,50.5-17.2c12.4-8.5,24.1-16.4,48-16.4c23.9,0,35.6,8,48,16.4    c12.4,8.5,25.2,17.2,50.5,17.2s38.1-8.8,50.5-17.2c12.4-8.5,24.1-16.4,48-16.4s35.6,8,48,16.4c12.4,8.5,25.2,17.2,50.5,17.2    c1.2,0,2.3-1,2.3-2.2S847.7,1058.9,846.3,1058.9C846.4,1058.9,846.4,1058.9,846.3,1058.9L846.3,1058.9z"></path>	</g></g></svg>